# xmcd CD database file
#
# Track frame offsets:
#	150
#	3540
#	17513
#	31725
#	45625
#	64045
#	75888
#	91748
#	109062
#	124737
#	140555
#	157130
#	175710
#	192390
#	207325
#
# Disc length: 2929 seconds
#
# Revision: 0
# Processed by: cddbd v1.5.1PL0 Copyright (c) Steve Scherf et al.
# Submitted via: CDex 1.51
#
DISCID=b90b6f0f
DTITLE=Frank Mills - Romantic
DYEAR=2003
DGENRE=New Age
TTITLE0=Prelude 
TTITLE1=Are You Still Loving Me? 
TTITLE2=Allegro
TTITLE3=Chickadee
TTITLE4=Andromeda 
TTITLE5=Send In The Clowns 
TTITLE6=A Classical Rock 
TTITLE7=Smile 
TTITLE8=Anticipation
TTITLE9=Storm Warning 
TTITLE10=Smoke Gets In Your Eyes 
TTITLE11=I Can't Help Falling In Love With You 
TTITLE12=Chariots Of Fire 
TTITLE13=Music Box Dancer (Bonus Track)
TTITLE14=The Happy Song (Bonus Track)
EXTD=YEAR: 2003
EXTT0=
EXTT1=
EXTT2=
EXTT3=
EXTT4=
EXTT5=
EXTT6=
EXTT7=
EXTT8=
EXTT9=
EXTT10=
EXTT11=
EXTT12=
EXTT13=
EXTT14=
PLAYORDER=
